<mxfile modified="2024-01-24T12:52:22.961Z" host="app.diagrams.net" agent="Mozilla/5.0 (X11; Linux x86_64) AppleWebKit/537.36 (KHTML, like Gecko) Chrome/120.0.0.0 Safari/537.36" etag="l3Pap8NEiSViL4-YrleN" version="23.0.0" type="github">
  <diagram id="Ht1M8jgEwFfnCIfOTk4-" name="Page-1">
    <mxGraphModel dx="1380" dy="1613" grid="1" gridSize="10" guides="1" tooltips="1" connect="1" arrows="1" fold="1" page="1" pageScale="1" pageWidth="1169" pageHeight="827" math="0" shadow="0">
      <root>
        <mxCell id="0" />
        <mxCell id="1" parent="0" />
        <mxCell id="gtgi0953xaSqISBwZ9vZ-12" value="Subnet mantis" style="sketch=0;outlineConnect=0;gradientColor=none;html=1;whiteSpace=wrap;fontSize=12;fontStyle=0;shape=mxgraph.aws4.group;grIcon=mxgraph.aws4.group_subnet;strokeColor=#879196;fillColor=none;verticalAlign=top;align=left;spacingLeft=30;fontColor=#879196;dashed=0;" parent="1" vertex="1">
          <mxGeometry x="160" y="160" width="250" height="100" as="geometry" />
        </mxCell>
        <mxCell id="UEzPUAAOIrF-is8g5C7q-74" value="AWS Cloud" style="points=[[0,0],[0.25,0],[0.5,0],[0.75,0],[1,0],[1,0.25],[1,0.5],[1,0.75],[1,1],[0.75,1],[0.5,1],[0.25,1],[0,1],[0,0.75],[0,0.5],[0,0.25]];outlineConnect=0;gradientColor=none;html=1;whiteSpace=wrap;fontSize=12;fontStyle=0;shape=mxgraph.aws4.group;grIcon=mxgraph.aws4.group_aws_cloud_alt;strokeColor=#232F3E;fillColor=none;verticalAlign=top;align=left;spacingLeft=30;fontColor=#232F3E;dashed=0;labelBackgroundColor=#ffffff;container=1;pointerEvents=0;collapsible=0;recursiveResize=0;" parent="1" vertex="1">
          <mxGeometry y="-40" width="1160" height="850" as="geometry" />
        </mxCell>
        <mxCell id="gtgi0953xaSqISBwZ9vZ-2" value="Region (us-east-2)" style="sketch=0;outlineConnect=0;gradientColor=none;html=1;whiteSpace=wrap;fontSize=12;fontStyle=0;shape=mxgraph.aws4.group;grIcon=mxgraph.aws4.group_region;strokeColor=#B6BABF;fillColor=none;verticalAlign=top;align=left;spacingLeft=30;fontColor=#B6BABF;dashed=1;" parent="1" vertex="1">
          <mxGeometry x="60" y="40" width="1040" height="720" as="geometry" />
        </mxCell>
        <mxCell id="gtgi0953xaSqISBwZ9vZ-3" value="VPC (staging)" style="sketch=0;outlineConnect=0;gradientColor=none;html=1;whiteSpace=wrap;fontSize=12;fontStyle=0;shape=mxgraph.aws4.group;grIcon=mxgraph.aws4.group_vpc;strokeColor=#B6BABF;fillColor=none;verticalAlign=top;align=left;spacingLeft=30;fontColor=#B6BABF;dashed=0;" parent="1" vertex="1">
          <mxGeometry x="100" y="80" width="970" height="660" as="geometry" />
        </mxCell>
        <mxCell id="gtgi0953xaSqISBwZ9vZ-5" value="&lt;b&gt;AZ (us-east-2a)&lt;/b&gt;" style="sketch=0;outlineConnect=0;gradientColor=none;html=1;whiteSpace=wrap;fontSize=12;fontStyle=0;shape=mxgraph.aws4.group;grIcon=mxgraph.aws4.group_availability_zone;strokeColor=#545B64;fillColor=none;verticalAlign=top;align=left;spacingLeft=30;fontColor=#545B64;dashed=1;" parent="1" vertex="1">
          <mxGeometry x="140" y="120" width="280" height="600" as="geometry" />
        </mxCell>
        <mxCell id="gtgi0953xaSqISBwZ9vZ-13" value="Subnet smtp-1" style="sketch=0;outlineConnect=0;gradientColor=none;html=1;whiteSpace=wrap;fontSize=12;fontStyle=0;shape=mxgraph.aws4.group;grIcon=mxgraph.aws4.group_subnet;strokeColor=#879196;fillColor=none;verticalAlign=top;align=left;spacingLeft=30;fontColor=#879196;dashed=0;" parent="1" vertex="1">
          <mxGeometry x="160" y="600" width="250" height="110" as="geometry" />
        </mxCell>
        <mxCell id="gtgi0953xaSqISBwZ9vZ-14" value="AWS Account (512142113662)" style="points=[[0,0],[0.25,0],[0.5,0],[0.75,0],[1,0],[1,0.25],[1,0.5],[1,0.75],[1,1],[0.75,1],[0.5,1],[0.25,1],[0,1],[0,0.75],[0,0.5],[0,0.25]];outlineConnect=0;gradientColor=none;html=1;whiteSpace=wrap;fontSize=12;fontStyle=0;container=1;pointerEvents=0;collapsible=0;recursiveResize=0;shape=mxgraph.aws4.group;grIcon=mxgraph.aws4.group_account;strokeColor=#CD2264;fillColor=none;verticalAlign=top;align=left;spacingLeft=30;fontColor=#CD2264;dashed=0;" parent="1" vertex="1">
          <mxGeometry x="25" width="1125" height="790" as="geometry" />
        </mxCell>
        <mxCell id="gtgi0953xaSqISBwZ9vZ-10" value="Subnet databases" style="sketch=0;outlineConnect=0;gradientColor=none;html=1;whiteSpace=wrap;fontSize=12;fontStyle=0;shape=mxgraph.aws4.group;grIcon=mxgraph.aws4.group_subnet;strokeColor=#879196;fillColor=none;verticalAlign=top;align=left;spacingLeft=30;fontColor=#879196;dashed=0;" parent="gtgi0953xaSqISBwZ9vZ-14" vertex="1">
          <mxGeometry x="135" y="269.99999999999994" width="250" height="100" as="geometry" />
        </mxCell>
        <mxCell id="gtgi0953xaSqISBwZ9vZ-4" value="Subnet hap" style="sketch=0;outlineConnect=0;gradientColor=none;html=1;whiteSpace=wrap;fontSize=12;fontStyle=0;shape=mxgraph.aws4.group;grIcon=mxgraph.aws4.group_subnet;strokeColor=#879196;fillColor=none;verticalAlign=top;align=left;spacingLeft=30;fontColor=#879196;dashed=0;" parent="gtgi0953xaSqISBwZ9vZ-14" vertex="1">
          <mxGeometry x="135" y="378" width="250" height="100" as="geometry" />
        </mxCell>
        <mxCell id="gtgi0953xaSqISBwZ9vZ-11" value="Subnet smtp" style="sketch=0;outlineConnect=0;gradientColor=none;html=1;whiteSpace=wrap;fontSize=12;fontStyle=0;shape=mxgraph.aws4.group;grIcon=mxgraph.aws4.group_subnet;strokeColor=#879196;fillColor=none;verticalAlign=top;align=left;spacingLeft=30;fontColor=#879196;dashed=0;" parent="gtgi0953xaSqISBwZ9vZ-14" vertex="1">
          <mxGeometry x="135" y="490" width="250" height="100" as="geometry" />
        </mxCell>
        <mxCell id="xfgOP8ZvM4Aay_EHcEOd-10" style="edgeStyle=orthogonalEdgeStyle;rounded=0;orthogonalLoop=1;jettySize=auto;html=1;" edge="1" parent="gtgi0953xaSqISBwZ9vZ-14" source="tCZkr2dE6usLujfxuvrl-17" target="tCZkr2dE6usLujfxuvrl-5">
          <mxGeometry relative="1" as="geometry">
            <mxPoint x="364" y="530" as="targetPoint" />
          </mxGeometry>
        </mxCell>
        <mxCell id="tCZkr2dE6usLujfxuvrl-17" value="" style="sketch=0;outlineConnect=0;fontColor=#232F3E;gradientColor=none;fillColor=#8C4FFF;strokeColor=none;dashed=0;verticalLabelPosition=bottom;verticalAlign=top;align=center;html=1;fontSize=12;fontStyle=0;aspect=fixed;pointerEvents=1;shape=mxgraph.aws4.nat_gateway;" parent="gtgi0953xaSqISBwZ9vZ-14" vertex="1">
          <mxGeometry x="270" y="520.5" width="39" height="39" as="geometry" />
        </mxCell>
        <mxCell id="xfgOP8ZvM4Aay_EHcEOd-8" value="" style="sketch=0;points=[[0.5,0,0],[1,0.5,0],[0.5,1,0],[0,0.5,0],[0.145,0.145,0],[0.8555,0.145,0],[0.855,0.8555,0],[0.145,0.855,0]];verticalLabelPosition=bottom;html=1;verticalAlign=top;aspect=fixed;align=center;pointerEvents=1;shape=mxgraph.cisco19.lock;fillColor=#005073;strokeColor=none;" vertex="1" parent="gtgi0953xaSqISBwZ9vZ-14">
          <mxGeometry x="145" y="680" width="20" height="20" as="geometry" />
        </mxCell>
        <mxCell id="xfgOP8ZvM4Aay_EHcEOd-16" style="edgeStyle=orthogonalEdgeStyle;rounded=0;orthogonalLoop=1;jettySize=auto;html=1;" edge="1" parent="gtgi0953xaSqISBwZ9vZ-14" source="tCZkr2dE6usLujfxuvrl-5" target="tCZkr2dE6usLujfxuvrl-8">
          <mxGeometry relative="1" as="geometry">
            <Array as="points">
              <mxPoint x="364" y="570" />
              <mxPoint x="1048" y="570" />
            </Array>
          </mxGeometry>
        </mxCell>
        <mxCell id="xfgOP8ZvM4Aay_EHcEOd-48" style="edgeStyle=orthogonalEdgeStyle;rounded=0;orthogonalLoop=1;jettySize=auto;html=1;" edge="1" parent="gtgi0953xaSqISBwZ9vZ-14" source="tCZkr2dE6usLujfxuvrl-5" target="tCZkr2dE6usLujfxuvrl-7">
          <mxGeometry relative="1" as="geometry">
            <Array as="points">
              <mxPoint x="364" y="500" />
              <mxPoint x="955" y="500" />
              <mxPoint x="955" y="358" />
            </Array>
          </mxGeometry>
        </mxCell>
        <mxCell id="tCZkr2dE6usLujfxuvrl-5" value="" style="sketch=0;outlineConnect=0;fontColor=#232F3E;gradientColor=none;fillColor=#8C4FFF;strokeColor=none;dashed=0;verticalLabelPosition=bottom;verticalAlign=top;align=center;html=1;fontSize=12;fontStyle=0;aspect=fixed;pointerEvents=1;shape=mxgraph.aws4.route_table;" parent="gtgi0953xaSqISBwZ9vZ-14" vertex="1">
          <mxGeometry x="350" y="526.36" width="28" height="27.29" as="geometry" />
        </mxCell>
        <mxCell id="xfgOP8ZvM4Aay_EHcEOd-27" style="edgeStyle=orthogonalEdgeStyle;rounded=0;orthogonalLoop=1;jettySize=auto;html=1;" edge="1" parent="gtgi0953xaSqISBwZ9vZ-14" source="tCZkr2dE6usLujfxuvrl-4" target="tCZkr2dE6usLujfxuvrl-7">
          <mxGeometry relative="1" as="geometry">
            <Array as="points">
              <mxPoint x="364" y="390" />
              <mxPoint x="835" y="390" />
              <mxPoint x="835" y="358" />
            </Array>
          </mxGeometry>
        </mxCell>
        <mxCell id="xfgOP8ZvM4Aay_EHcEOd-29" style="edgeStyle=orthogonalEdgeStyle;rounded=0;orthogonalLoop=1;jettySize=auto;html=1;" edge="1" parent="gtgi0953xaSqISBwZ9vZ-14" source="tCZkr2dE6usLujfxuvrl-4" target="tCZkr2dE6usLujfxuvrl-8">
          <mxGeometry relative="1" as="geometry">
            <Array as="points">
              <mxPoint x="364" y="460" />
            </Array>
          </mxGeometry>
        </mxCell>
        <mxCell id="tCZkr2dE6usLujfxuvrl-4" value="" style="sketch=0;outlineConnect=0;fontColor=#232F3E;gradientColor=none;fillColor=#8C4FFF;strokeColor=none;dashed=0;verticalLabelPosition=bottom;verticalAlign=top;align=center;html=1;fontSize=12;fontStyle=0;aspect=fixed;pointerEvents=1;shape=mxgraph.aws4.route_table;" parent="gtgi0953xaSqISBwZ9vZ-14" vertex="1">
          <mxGeometry x="350" y="414" width="28" height="27.29" as="geometry" />
        </mxCell>
        <mxCell id="xfgOP8ZvM4Aay_EHcEOd-28" style="edgeStyle=orthogonalEdgeStyle;rounded=0;orthogonalLoop=1;jettySize=auto;html=1;" edge="1" parent="gtgi0953xaSqISBwZ9vZ-14" source="tCZkr2dE6usLujfxuvrl-3" target="tCZkr2dE6usLujfxuvrl-7">
          <mxGeometry relative="1" as="geometry">
            <mxPoint x="1025" y="360" as="targetPoint" />
            <Array as="points">
              <mxPoint x="364" y="290" />
              <mxPoint x="1048" y="290" />
            </Array>
          </mxGeometry>
        </mxCell>
        <mxCell id="xfgOP8ZvM4Aay_EHcEOd-37" style="edgeStyle=orthogonalEdgeStyle;rounded=0;orthogonalLoop=1;jettySize=auto;html=1;" edge="1" parent="gtgi0953xaSqISBwZ9vZ-14" source="tCZkr2dE6usLujfxuvrl-3" target="tCZkr2dE6usLujfxuvrl-8">
          <mxGeometry relative="1" as="geometry">
            <Array as="points">
              <mxPoint x="364" y="360" />
              <mxPoint x="615" y="360" />
              <mxPoint x="615" y="460" />
            </Array>
          </mxGeometry>
        </mxCell>
        <mxCell id="tCZkr2dE6usLujfxuvrl-3" value="" style="sketch=0;outlineConnect=0;fontColor=#232F3E;gradientColor=none;fillColor=#8C4FFF;strokeColor=none;dashed=0;verticalLabelPosition=bottom;verticalAlign=top;align=center;html=1;fontSize=12;fontStyle=0;aspect=fixed;pointerEvents=1;shape=mxgraph.aws4.route_table;" parent="gtgi0953xaSqISBwZ9vZ-14" vertex="1">
          <mxGeometry x="350" y="306.36" width="28" height="27.29" as="geometry" />
        </mxCell>
        <mxCell id="xfgOP8ZvM4Aay_EHcEOd-30" style="edgeStyle=orthogonalEdgeStyle;rounded=0;orthogonalLoop=1;jettySize=auto;html=1;" edge="1" parent="gtgi0953xaSqISBwZ9vZ-14" source="tCZkr2dE6usLujfxuvrl-2" target="tCZkr2dE6usLujfxuvrl-8">
          <mxGeometry relative="1" as="geometry">
            <Array as="points">
              <mxPoint x="364" y="240" />
              <mxPoint x="705" y="240" />
              <mxPoint x="705" y="410" />
              <mxPoint x="1048" y="410" />
            </Array>
          </mxGeometry>
        </mxCell>
        <mxCell id="xfgOP8ZvM4Aay_EHcEOd-47" style="edgeStyle=orthogonalEdgeStyle;rounded=0;orthogonalLoop=1;jettySize=auto;html=1;" edge="1" parent="gtgi0953xaSqISBwZ9vZ-14" source="tCZkr2dE6usLujfxuvrl-2">
          <mxGeometry relative="1" as="geometry">
            <mxPoint x="1045" y="290" as="targetPoint" />
            <Array as="points">
              <mxPoint x="364" y="170" />
              <mxPoint x="1046" y="170" />
            </Array>
          </mxGeometry>
        </mxCell>
        <mxCell id="tCZkr2dE6usLujfxuvrl-2" value="" style="sketch=0;outlineConnect=0;fontColor=#232F3E;gradientColor=none;fillColor=#8C4FFF;strokeColor=none;dashed=0;verticalLabelPosition=bottom;verticalAlign=top;align=center;html=1;fontSize=12;fontStyle=0;aspect=fixed;pointerEvents=1;shape=mxgraph.aws4.route_table;" parent="gtgi0953xaSqISBwZ9vZ-14" vertex="1">
          <mxGeometry x="350" y="190" width="28" height="27.29" as="geometry" />
        </mxCell>
        <mxCell id="tCZkr2dE6usLujfxuvrl-7" value="" style="sketch=0;outlineConnect=0;fontColor=#232F3E;gradientColor=none;fillColor=#8C4FFF;strokeColor=none;dashed=0;verticalLabelPosition=bottom;verticalAlign=top;align=center;html=1;fontSize=12;fontStyle=0;aspect=fixed;pointerEvents=1;shape=mxgraph.aws4.endpoints;" parent="gtgi0953xaSqISBwZ9vZ-14" vertex="1">
          <mxGeometry x="1024" y="333.65" width="48" height="48" as="geometry" />
        </mxCell>
        <mxCell id="tCZkr2dE6usLujfxuvrl-8" value="" style="sketch=0;outlineConnect=0;fontColor=#232F3E;gradientColor=none;fillColor=#8C4FFF;strokeColor=none;dashed=0;verticalLabelPosition=bottom;verticalAlign=top;align=center;html=1;fontSize=12;fontStyle=0;aspect=fixed;pointerEvents=1;shape=mxgraph.aws4.endpoints;" parent="gtgi0953xaSqISBwZ9vZ-14" vertex="1">
          <mxGeometry x="1024" y="430" width="48" height="48" as="geometry" />
        </mxCell>
        <mxCell id="xfgOP8ZvM4Aay_EHcEOd-24" value="S3" style="text;strokeColor=none;align=center;fillColor=none;html=1;verticalAlign=middle;whiteSpace=wrap;rounded=0;" vertex="1" parent="gtgi0953xaSqISBwZ9vZ-14">
          <mxGeometry x="1024" y="399.99999999999994" width="60" height="30" as="geometry" />
        </mxCell>
        <mxCell id="xfgOP8ZvM4Aay_EHcEOd-25" value="DynamoDB" style="text;strokeColor=none;align=center;fillColor=none;html=1;verticalAlign=middle;whiteSpace=wrap;rounded=0;" vertex="1" parent="gtgi0953xaSqISBwZ9vZ-14">
          <mxGeometry x="1024" y="303.6499999999999" width="60" height="30" as="geometry" />
        </mxCell>
        <mxCell id="xfgOP8ZvM4Aay_EHcEOd-32" value="" style="sketch=0;points=[[0,0,0],[0.25,0,0],[0.5,0,0],[0.75,0,0],[1,0,0],[0,1,0],[0.25,1,0],[0.5,1,0],[0.75,1,0],[1,1,0],[0,0.25,0],[0,0.5,0],[0,0.75,0],[1,0.25,0],[1,0.5,0],[1,0.75,0]];outlineConnect=0;fontColor=#232F3E;fillColor=#C925D1;strokeColor=#ffffff;dashed=0;verticalLabelPosition=bottom;verticalAlign=top;align=center;html=1;fontSize=12;fontStyle=0;aspect=fixed;shape=mxgraph.aws4.resourceIcon;resIcon=mxgraph.aws4.aurora;" vertex="1" parent="gtgi0953xaSqISBwZ9vZ-14">
          <mxGeometry x="227.15" y="297.15" width="42.85" height="42.85" as="geometry" />
        </mxCell>
        <mxCell id="xfgOP8ZvM4Aay_EHcEOd-33" value="" style="sketch=0;points=[[0,0,0],[0.25,0,0],[0.5,0,0],[0.75,0,0],[1,0,0],[0,1,0],[0.25,1,0],[0.5,1,0],[0.75,1,0],[1,1,0],[0,0.25,0],[0,0.5,0],[0,0.75,0],[1,0.25,0],[1,0.5,0],[1,0.75,0]];outlineConnect=0;fontColor=#232F3E;fillColor=#8C4FFF;strokeColor=#ffffff;dashed=0;verticalLabelPosition=bottom;verticalAlign=top;align=center;html=1;fontSize=12;fontStyle=0;aspect=fixed;shape=mxgraph.aws4.resourceIcon;resIcon=mxgraph.aws4.elasticsearch_service;" vertex="1" parent="gtgi0953xaSqISBwZ9vZ-14">
          <mxGeometry x="165" y="297.15" width="43" height="43" as="geometry" />
        </mxCell>
        <mxCell id="xfgOP8ZvM4Aay_EHcEOd-35" value="" style="sketch=0;points=[[0.5,0,0],[1,0.5,0],[0.5,1,0],[0,0.5,0],[0.145,0.145,0],[0.8555,0.145,0],[0.855,0.8555,0],[0.145,0.855,0]];verticalLabelPosition=bottom;html=1;verticalAlign=top;aspect=fixed;align=center;pointerEvents=1;shape=mxgraph.cisco19.lock;fillColor=#f8cecc;strokeColor=#b85450;" vertex="1" parent="gtgi0953xaSqISBwZ9vZ-14">
          <mxGeometry x="145" y="340" width="20" height="20" as="geometry" />
        </mxCell>
        <mxCell id="xfgOP8ZvM4Aay_EHcEOd-38" value="" style="shape=mxgraph.signs.tech.mail;html=1;pointerEvents=1;fillColor=#000000;strokeColor=none;verticalLabelPosition=bottom;verticalAlign=top;align=center;" vertex="1" parent="gtgi0953xaSqISBwZ9vZ-14">
          <mxGeometry x="241" y="645" width="38" height="35" as="geometry" />
        </mxCell>
        <mxCell id="xfgOP8ZvM4Aay_EHcEOd-42" value="" style="sketch=0;points=[[0,0,0],[0.25,0,0],[0.5,0,0],[0.75,0,0],[1,0,0],[0,1,0],[0.25,1,0],[0.5,1,0],[0.75,1,0],[1,1,0],[0,0.25,0],[0,0.5,0],[0,0.75,0],[1,0.25,0],[1,0.5,0],[1,0.75,0]];outlineConnect=0;fontColor=#232F3E;fillColor=#ED7100;strokeColor=#ffffff;dashed=0;verticalLabelPosition=bottom;verticalAlign=top;align=center;html=1;fontSize=12;fontStyle=0;aspect=fixed;shape=mxgraph.aws4.resourceIcon;resIcon=mxgraph.aws4.eks;" vertex="1" parent="gtgi0953xaSqISBwZ9vZ-14">
          <mxGeometry x="227.14999999999998" y="630" width="23" height="23" as="geometry" />
        </mxCell>
        <mxCell id="xfgOP8ZvM4Aay_EHcEOd-43" value="" style="image;points=[];aspect=fixed;html=1;align=center;shadow=0;dashed=0;image=img/lib/allied_telesis/storage/Datacenter_Server_Half_Rack_ToR.svg;" vertex="1" parent="gtgi0953xaSqISBwZ9vZ-14">
          <mxGeometry x="227.15" y="210" width="33.2" height="43.14" as="geometry" />
        </mxCell>
        <mxCell id="xfgOP8ZvM4Aay_EHcEOd-44" value="" style="sketch=0;points=[[0,0,0],[0.25,0,0],[0.5,0,0],[0.75,0,0],[1,0,0],[0,1,0],[0.25,1,0],[0.5,1,0],[0.75,1,0],[1,1,0],[0,0.25,0],[0,0.5,0],[0,0.75,0],[1,0.25,0],[1,0.5,0],[1,0.75,0]];outlineConnect=0;fontColor=#232F3E;fillColor=#ED7100;strokeColor=#ffffff;dashed=0;verticalLabelPosition=bottom;verticalAlign=top;align=center;html=1;fontSize=12;fontStyle=0;aspect=fixed;shape=mxgraph.aws4.resourceIcon;resIcon=mxgraph.aws4.eks;" vertex="1" parent="gtgi0953xaSqISBwZ9vZ-14">
          <mxGeometry x="217.99999999999997" y="200" width="23" height="23" as="geometry" />
        </mxCell>
        <mxCell id="xfgOP8ZvM4Aay_EHcEOd-46" value="" style="image;points=[];aspect=fixed;html=1;align=center;shadow=0;dashed=0;image=img/lib/allied_telesis/storage/Datacenter_Server_Half_Rack_ToR.svg;" vertex="1" parent="gtgi0953xaSqISBwZ9vZ-14">
          <mxGeometry x="231.97999999999996" y="414" width="33.2" height="43.14" as="geometry" />
        </mxCell>
        <mxCell id="xfgOP8ZvM4Aay_EHcEOd-49" value="" style="sketch=0;points=[[0,0,0],[0.25,0,0],[0.5,0,0],[0.75,0,0],[1,0,0],[0,1,0],[0.25,1,0],[0.5,1,0],[0.75,1,0],[1,1,0],[0,0.25,0],[0,0.5,0],[0,0.75,0],[1,0.25,0],[1,0.5,0],[1,0.75,0]];outlineConnect=0;fontColor=#232F3E;fillColor=#E7157B;strokeColor=#ffffff;dashed=0;verticalLabelPosition=bottom;verticalAlign=top;align=center;html=1;fontSize=12;fontStyle=0;aspect=fixed;shape=mxgraph.aws4.resourceIcon;resIcon=mxgraph.aws4.mq;" vertex="1" parent="gtgi0953xaSqISBwZ9vZ-14">
          <mxGeometry x="285" y="295.15" width="47" height="47" as="geometry" />
        </mxCell>
        <mxCell id="xfgOP8ZvM4Aay_EHcEOd-50" value="" style="sketch=0;points=[[0,0,0],[0.25,0,0],[0.5,0,0],[0.75,0,0],[1,0,0],[0,1,0],[0.25,1,0],[0.5,1,0],[0.75,1,0],[1,1,0],[0,0.25,0],[0,0.5,0],[0,0.75,0],[1,0.25,0],[1,0.5,0],[1,0.75,0]];outlineConnect=0;fontColor=#232F3E;fillColor=#8C4FFF;strokeColor=#ffffff;dashed=0;verticalLabelPosition=bottom;verticalAlign=top;align=center;html=1;fontSize=12;fontStyle=0;aspect=fixed;shape=mxgraph.aws4.resourceIcon;resIcon=mxgraph.aws4.transit_gateway;" vertex="1" parent="gtgi0953xaSqISBwZ9vZ-14">
          <mxGeometry x="635" y="55" width="48" height="48" as="geometry" />
        </mxCell>
        <mxCell id="xfgOP8ZvM4Aay_EHcEOd-52" value="" style="outlineConnect=0;dashed=0;verticalLabelPosition=bottom;verticalAlign=top;align=center;html=1;shape=mxgraph.aws3.vpc_peering;fillColor=#F58536;gradientColor=none;" vertex="1" parent="gtgi0953xaSqISBwZ9vZ-14">
          <mxGeometry x="785" y="60" width="45" height="43" as="geometry" />
        </mxCell>
        <mxCell id="xfgOP8ZvM4Aay_EHcEOd-53" style="edgeStyle=orthogonalEdgeStyle;rounded=0;orthogonalLoop=1;jettySize=auto;html=1;entryX=0.5;entryY=1;entryDx=0;entryDy=0;entryPerimeter=0;" edge="1" parent="gtgi0953xaSqISBwZ9vZ-14" source="tCZkr2dE6usLujfxuvrl-2" target="xfgOP8ZvM4Aay_EHcEOd-50">
          <mxGeometry relative="1" as="geometry" />
        </mxCell>
        <mxCell id="xfgOP8ZvM4Aay_EHcEOd-54" value="Cato 10.250.x.x&lt;br&gt;Redis Labs&amp;nbsp;" style="text;strokeColor=none;align=center;fillColor=none;html=1;verticalAlign=middle;whiteSpace=wrap;rounded=0;" vertex="1" parent="gtgi0953xaSqISBwZ9vZ-14">
          <mxGeometry x="655" y="120" width="115" height="30" as="geometry" />
        </mxCell>
        <mxCell id="xfgOP8ZvM4Aay_EHcEOd-55" value="" style="sketch=0;points=[[0,0,0],[0.25,0,0],[0.5,0,0],[0.75,0,0],[1,0,0],[0,1,0],[0.25,1,0],[0.5,1,0],[0.75,1,0],[1,1,0],[0,0.25,0],[0,0.5,0],[0,0.75,0],[1,0.25,0],[1,0.5,0],[1,0.75,0]];outlineConnect=0;fontColor=#232F3E;fillColor=#ED7100;strokeColor=#ffffff;dashed=0;verticalLabelPosition=bottom;verticalAlign=top;align=center;html=1;fontSize=12;fontStyle=0;aspect=fixed;shape=mxgraph.aws4.resourceIcon;resIcon=mxgraph.aws4.ec2;" vertex="1" parent="gtgi0953xaSqISBwZ9vZ-14">
          <mxGeometry x="220.85" y="409.85" width="20.15" height="20.15" as="geometry" />
        </mxCell>
        <mxCell id="xfgOP8ZvM4Aay_EHcEOd-9" style="edgeStyle=orthogonalEdgeStyle;rounded=0;orthogonalLoop=1;jettySize=auto;html=1;" edge="1" parent="1" source="tCZkr2dE6usLujfxuvrl-6" target="tCZkr2dE6usLujfxuvrl-17">
          <mxGeometry relative="1" as="geometry" />
        </mxCell>
        <mxCell id="tCZkr2dE6usLujfxuvrl-6" value="" style="sketch=0;outlineConnect=0;fontColor=#232F3E;gradientColor=none;fillColor=#8C4FFF;strokeColor=none;dashed=0;verticalLabelPosition=bottom;verticalAlign=top;align=center;html=1;fontSize=12;fontStyle=0;aspect=fixed;pointerEvents=1;shape=mxgraph.aws4.route_table;" parent="1" vertex="1">
          <mxGeometry x="370" y="630" width="28" height="27.29" as="geometry" />
        </mxCell>
        <mxCell id="tCZkr2dE6usLujfxuvrl-9" value="" style="sketch=0;outlineConnect=0;fontColor=#232F3E;gradientColor=none;fillColor=#8C4FFF;strokeColor=none;dashed=0;verticalLabelPosition=bottom;verticalAlign=top;align=center;html=1;fontSize=12;fontStyle=0;aspect=fixed;pointerEvents=1;shape=mxgraph.aws4.internet_gateway;" parent="1" vertex="1">
          <mxGeometry x="585" y="60" width="48" height="48" as="geometry" />
        </mxCell>
        <mxCell id="tCZkr2dE6usLujfxuvrl-19" style="edgeStyle=orthogonalEdgeStyle;rounded=0;orthogonalLoop=1;jettySize=auto;html=1;" parent="1" source="tCZkr2dE6usLujfxuvrl-5" target="tCZkr2dE6usLujfxuvrl-9" edge="1">
          <mxGeometry relative="1" as="geometry">
            <mxPoint x="450" y="521" as="sourcePoint" />
          </mxGeometry>
        </mxCell>
        <mxCell id="xfgOP8ZvM4Aay_EHcEOd-13" style="edgeStyle=orthogonalEdgeStyle;rounded=0;orthogonalLoop=1;jettySize=auto;html=1;" edge="1" parent="1" source="tCZkr2dE6usLujfxuvrl-2" target="tCZkr2dE6usLujfxuvrl-9">
          <mxGeometry relative="1" as="geometry" />
        </mxCell>
        <mxCell id="xfgOP8ZvM4Aay_EHcEOd-14" style="edgeStyle=orthogonalEdgeStyle;rounded=0;orthogonalLoop=1;jettySize=auto;html=1;" edge="1" parent="1" source="tCZkr2dE6usLujfxuvrl-3" target="tCZkr2dE6usLujfxuvrl-9">
          <mxGeometry relative="1" as="geometry">
            <Array as="points">
              <mxPoint x="560" y="320" />
              <mxPoint x="560" y="84" />
            </Array>
          </mxGeometry>
        </mxCell>
        <mxCell id="xfgOP8ZvM4Aay_EHcEOd-15" style="edgeStyle=orthogonalEdgeStyle;rounded=0;orthogonalLoop=1;jettySize=auto;html=1;" edge="1" parent="1" source="tCZkr2dE6usLujfxuvrl-4" target="tCZkr2dE6usLujfxuvrl-9">
          <mxGeometry relative="1" as="geometry" />
        </mxCell>
        <mxCell id="xfgOP8ZvM4Aay_EHcEOd-36" value="DB Snapshots" style="text;strokeColor=none;align=center;fillColor=none;html=1;verticalAlign=middle;whiteSpace=wrap;rounded=0;" vertex="1" parent="1">
          <mxGeometry x="460" y="340" width="60" height="40" as="geometry" />
        </mxCell>
      </root>
    </mxGraphModel>
  </diagram>
</mxfile>
